<svg xmlns="http://www.w3.org/2000/svg" viewBox="0 0 560 160" width="560" height="160">
  <!-- Auto-generated for Bokaro Steel City · scripts/update_banner.py -->
  <defs>
    <style>

      @keyframes rain-fall { 0% { transform: translateY(-15px); opacity: 0.6; } 100% { transform: translateY(20px); opacity: 0; } }
      .bubble { animation: bubble-pulse 2s infinite ease-in-out; }
      @keyframes bubble-pulse { 0%, 100% { opacity: 0.75; } 50% { opacity: 1; } }
      .rain1 { animation: rain-fall 0.67s infinite linear 0.11s; }
      .rain2 { animation: rain-fall 0.79s infinite linear 0.22s; }
      .rain3 { animation: rain-fall 0.91s infinite linear 0.33s; }
      .rain4 { animation: rain-fall 1.03s infinite linear 0.44s; }
      .rain5 { animation: rain-fall 0.55s infinite linear 0.55s; }
      .rain6 { animation: rain-fall 0.67s infinite linear 0.66s; }
      .rain7 { animation: rain-fall 0.79s infinite linear 0.77s; }
      .rain8 { animation: rain-fall 0.91s infinite linear 0.88s; }
      .rain9 { animation: rain-fall 1.03s infinite linear 0.09s; }
      .rain10 { animation: rain-fall 0.55s infinite linear 0.20s; }
      .rain11 { animation: rain-fall 0.67s infinite linear 0.31s; }
      .rain12 { animation: rain-fall 0.79s infinite linear 0.42s; }

    </style>
  </defs>

  <rect x="0" y="0" width="560" height="160" rx="8" fill="#12121f"/>
  <rect class="lightning" x="0" y="0" width="560" height="160" rx="8" fill="#fff" opacity="0"/>

  <ellipse cx="60" cy="26" rx="50" ry="14" fill="#3a3945" opacity="0.45"/>
  <ellipse cx="500" cy="28" rx="48" ry="13" fill="#3a3945" opacity="0.45"/>
  <ellipse cx="280" cy="20" rx="70" ry="16" fill="#3a3945" opacity="0.32"/>

  <circle cx="470" cy="30" r="12" fill="#E8E8F0" opacity="0.85"/>
  <circle cx="476" cy="27" r="10" fill="#12121f" opacity="1"/>  <circle cx="40" cy="22" r="1" fill="#fff" opacity="0.55"/>
  <circle cx="120" cy="14" r="1" fill="#fff" opacity="0.55"/>
  <circle cx="200" cy="28" r="1" fill="#fff" opacity="0.55"/>
  <circle cx="320" cy="18" r="1" fill="#fff" opacity="0.55"/>
  <circle cx="420" cy="24" r="1" fill="#fff" opacity="0.55"/>
  <circle cx="500" cy="12" r="1" fill="#fff" opacity="0.55"/>
  <circle cx="80" cy="36" r="1" fill="#fff" opacity="0.55"/>
  <circle cx="460" cy="34" r="1" fill="#fff" opacity="0.55"/>

  <ellipse cx="280" cy="148" rx="170" ry="7" fill="#5a7a97" opacity="0.08"/>

  <g transform="translate(242, 68) scale(5)">

    <rect x="3" y="15" width="9" height="1" fill="#000" opacity="0.35"/>
    <g fill="#DE886D">
      <rect x="3" y="13" width="1" height="2"/><rect x="5" y="13" width="1" height="2"/>
      <rect x="9" y="13" width="1" height="2"/><rect x="11" y="13" width="1" height="2"/>
      <rect x="2" y="8" width="11" height="5"/>
      <rect x="0" y="10" width="2" height="2"/><rect x="13" y="10" width="2" height="2"/>
    </g>
    <g fill="#000" opacity="0.7">
      <rect x="4" y="10" width="2" height="1"/><rect x="9" y="10" width="2" height="1"/>
    </g>
    <text x="7.5" y="6" text-anchor="middle" fill="#DE886D" font-family="monospace" font-size="3">z</text>
  </g>

  <g class="bubble">
    <rect x="250" y="28" width="290" height="44" rx="11" fill="#12121f" stroke="#DE886D" stroke-width="1.5"/>
    <polygon points="252,68 260,68 246,80" fill="#12121f" stroke="#DE886D" stroke-width="1"/>
    <text x="395.0" y="48" text-anchor="middle" fill="#DE886D" font-family="monospace" font-size="12" font-weight="bold">26°C · Clear</text>
    <text x="395.0" y="64" text-anchor="middle" fill="#bc8d6b" font-family="monospace" font-size="10">11:15 PM · Sun · Bokaro · 90% humidity</text>
  </g>
</svg>

