<svg xmlns="http://www.w3.org/2000/svg" viewBox="0 0 560 160" width="560" height="160">
  <!-- Auto-generated for Bokaro Steel City · scripts/update_banner.py -->
  <defs>
    <style>

      .umb-body { transform-origin: 7.5px 15px; animation: umb-sway 2s infinite ease-in-out; }
      .umb-shadow { animation: umb-s 2s infinite; }
      .umb-eyes { transform-origin: 7.5px 9px; animation: umb-blink 4s infinite; }
      @keyframes umb-sway { 0%, 100% { transform: rotate(0deg); } 50% { transform: rotate(-4deg); } }
      @keyframes umb-s { 0%, 100% { opacity: 0.5; } }
      @keyframes umb-blink { 0%, 46%, 54%, 100% { transform: scaleY(1); } 50% { transform: scaleY(0.1); } }
      @keyframes rain-fall { 0% { transform: translateY(-15px); opacity: 0.6; } 100% { transform: translateY(20px); opacity: 0; } }
      .bubble { animation: bubble-pulse 2s infinite ease-in-out; }
      @keyframes bubble-pulse { 0%, 100% { opacity: 0.75; } 50% { opacity: 1; } }
      .rain1 { animation: rain-fall 0.67s infinite linear 0.11s; }
      .rain2 { animation: rain-fall 0.79s infinite linear 0.22s; }
      .rain3 { animation: rain-fall 0.91s infinite linear 0.33s; }
      .rain4 { animation: rain-fall 1.03s infinite linear 0.44s; }
      .rain5 { animation: rain-fall 0.55s infinite linear 0.55s; }
      .rain6 { animation: rain-fall 0.67s infinite linear 0.66s; }
      .rain7 { animation: rain-fall 0.79s infinite linear 0.77s; }
      .rain8 { animation: rain-fall 0.91s infinite linear 0.88s; }
      .rain9 { animation: rain-fall 1.03s infinite linear 0.09s; }
      .rain10 { animation: rain-fall 0.55s infinite linear 0.20s; }
      .rain11 { animation: rain-fall 0.67s infinite linear 0.31s; }
      .rain12 { animation: rain-fall 0.79s infinite linear 0.42s; }
      .rain13 { animation: rain-fall 0.91s infinite linear 0.53s; }
      .rain14 { animation: rain-fall 1.03s infinite linear 0.64s; }
      .rain15 { animation: rain-fall 0.55s infinite linear 0.75s; }
      .rain16 { animation: rain-fall 0.67s infinite linear 0.86s; }
      .rain17 { animation: rain-fall 0.79s infinite linear 0.07s; }
      .rain18 { animation: rain-fall 0.91s infinite linear 0.18s; }

      .lightning { animation: lightning-flash 5s infinite; }
      @keyframes lightning-flash {
        0%, 89%, 100% { opacity: 0; }
        90%, 91% { opacity: 0.18; }
        92% { opacity: 0; }
        93%, 94% { opacity: 0.12; }
      }
    </style>
  </defs>

  <rect x="0" y="0" width="560" height="160" rx="8" fill="#1a1a28"/>
  <rect class="lightning" x="0" y="0" width="560" height="160" rx="8" fill="#fff" opacity="0"/>

  <ellipse cx="60" cy="26" rx="50" ry="14" fill="#3a3945" opacity="0.65"/>
  <ellipse cx="500" cy="28" rx="48" ry="13" fill="#3a3945" opacity="0.65"/>
  <ellipse cx="280" cy="20" rx="70" ry="16" fill="#3a3945" opacity="0.45"/>

  <rect class="rain1" x="20" y="14" width="1.5" height="4" fill="#5a7a97" opacity="0.55"/>
  <rect class="rain2" x="51" y="21" width="1.5" height="4" fill="#5a7a97" opacity="0.55"/>
  <rect class="rain3" x="82" y="28" width="1.5" height="4" fill="#5a7a97" opacity="0.55"/>
  <rect class="rain4" x="113" y="17" width="1.5" height="4" fill="#5a7a97" opacity="0.55"/>
  <rect class="rain5" x="144" y="24" width="1.5" height="4" fill="#5a7a97" opacity="0.55"/>
  <rect class="rain6" x="175" y="31" width="1.5" height="4" fill="#5a7a97" opacity="0.55"/>
  <rect class="rain7" x="206" y="20" width="1.5" height="4" fill="#5a7a97" opacity="0.55"/>
  <rect class="rain8" x="237" y="27" width="1.5" height="4" fill="#5a7a97" opacity="0.55"/>
  <rect class="rain9" x="268" y="16" width="1.5" height="4" fill="#5a7a97" opacity="0.55"/>
  <rect class="rain10" x="299" y="23" width="1.5" height="4" fill="#5a7a97" opacity="0.55"/>
  <rect class="rain11" x="330" y="30" width="1.5" height="4" fill="#5a7a97" opacity="0.55"/>
  <rect class="rain12" x="361" y="19" width="1.5" height="4" fill="#5a7a97" opacity="0.55"/>
  <rect class="rain1" x="392" y="26" width="1.5" height="4" fill="#5a7a97" opacity="0.55"/>
  <rect class="rain2" x="423" y="15" width="1.5" height="4" fill="#5a7a97" opacity="0.55"/>
  <rect class="rain3" x="454" y="22" width="1.5" height="4" fill="#5a7a97" opacity="0.55"/>
  <rect class="rain4" x="485" y="29" width="1.5" height="4" fill="#5a7a97" opacity="0.55"/>
  <rect class="rain5" x="516" y="18" width="1.5" height="4" fill="#5a7a97" opacity="0.55"/>
  <rect class="rain6" x="27" y="25" width="1.5" height="4" fill="#5a7a97" opacity="0.55"/>
  <ellipse cx="280" cy="148" rx="170" ry="7" fill="#5a7a97" opacity="0.14"/>

  <g transform="translate(242, 68) scale(5)">

    <rect class="umb-shadow" x="3" y="15" width="9" height="1" fill="#000" opacity="0.5"/>
    <rect class="rain1" x="-5" y="-5" width="1" height="2" fill="#6a9ec7" opacity="0.5"/>
    <rect class="rain2" x="0" y="-3" width="1" height="2" fill="#6a9ec7" opacity="0.5"/>
    <rect class="rain3" x="17" y="-4" width="1" height="2" fill="#6a9ec7" opacity="0.5"/>
    <rect class="rain4" x="22" y="-6" width="1" height="2" fill="#6a9ec7" opacity="0.5"/>
    <g class="umb-body">
      <g fill="#DE886D">
        <rect x="3" y="13" width="1" height="2"/><rect x="5" y="13" width="1" height="2"/>
        <rect x="9" y="13" width="1" height="2"/><rect x="11" y="13" width="1" height="2"/>
        <rect x="2" y="6" width="11" height="7"/>
        <rect x="0" y="9" width="2" height="2"/><rect x="13" y="7" width="2" height="2"/>
      </g>
      <rect x="14" y="7" width="1" height="8" fill="#555"/>
      <rect x="8" y="0" width="12" height="1" fill="#FF4444"/>
      <rect x="9" y="-1" width="10" height="2" fill="#FF4444"/>
      <rect x="10" y="-2" width="8" height="2" fill="#FF4444"/>
      <g class="umb-eyes" fill="#000">
        <rect x="4" y="8" width="1" height="2"/><rect x="10" y="8" width="1" height="2"/>
      </g>
    </g>
  </g>

  <g class="bubble">
    <rect x="350" y="36" width="86" height="34" rx="11" fill="#1a1a28" stroke="#DE886D" stroke-width="1.5"/>
    <polygon points="352,64 360,64 346,76" fill="#1a1a28" stroke="#DE886D" stroke-width="1"/>
    <text x="393" y="59" text-anchor="middle" fill="#DE886D" font-family="monospace" font-size="14" font-weight="bold">meow~!</text>
  </g>
</svg>

